<svg width="21" height="21" viewBox="0 0 21 21" fill="none" xmlns="http://www.w3.org/2000/svg">
<path fill-rule="evenodd" clip-rule="evenodd" d="M10.5 21C16.299 21 21 16.299 21 10.5C21 4.70101 16.299 0 10.5 0C4.70101 0 0 4.70101 0 10.5C0 16.299 4.70101 21 10.5 21ZM13.7766 11L9.23759 15.54C9.10631 15.6713 8.92826 15.7451 8.7426 15.7451C8.55694 15.7451 8.37889 15.6713 8.2476 15.54C8.11632 15.4088 8.04259 15.2306 8.04259 15.0449C8.04259 14.8593 8.11632 14.6811 8.2476 14.5498L12.2946 10.5L8.2476 6.4502C8.11632 6.31891 8.04259 6.14074 8.04259 5.95508C8.04259 5.76942 8.11632 5.59124 8.2476 5.45996C8.37889 5.32868 8.55694 5.25488 8.7426 5.25488C8.92826 5.25488 9.10631 5.32868 9.23759 5.45996L13.7766 10C13.908 10.1332 13.9817 10.3129 13.9817 10.5C13.9817 10.6871 13.908 10.8668 13.7766 11Z" fill="#c7b299"/>
</svg>
